<?xml version="1.0" encoding="UTF-8"?>
<svg width="50px" height="38px" viewBox="0 0 50 38" version="1.1" xmlns="http://www.w3.org/2000/svg" xmlns:xlink="http://www.w3.org/1999/xlink">
    <!-- Generator: Sketch 50.2 (55047) - http://www.bohemiancoding.com/sketch -->
    <title>№1</title>
    <desc>Created with Sketch.</desc>
    <defs></defs>
    <g id="Page-1" stroke="none" stroke-width="1" fill="none" fill-rule="evenodd">
        <g id="main-basic" transform="translate(-416.000000, -571.000000)" fill="#FFFFFF" fill-rule="nonzero">
            <g id="#1" transform="translate(416.000000, 565.000000)">
                <path d="M26.6425804,41.2145476 C29.3392141,39.3720713 31.5773598,40.9901521 33.62715,42.8197865 C30.9807891,43.5328505 28.1789176,43.8566018 26.6425804,41.2145476 Z M27.2907645,39.6289095 C27.410749,36.3819337 30.0544287,35.5654586 32.7570952,35.0254224 C31.7543201,37.5579824 30.3440001,39.9824 27.2907645,39.6282337 L27.2907645,39.6289095 Z M31.4506723,39.7512456 C33.9804003,37.689781 36.3479147,39.1138813 38.5465124,40.7650807 C35.9705334,41.697809 33.206199,42.2554183 31.4506723,39.7512456 Z M33.796737,38.212244 C32.2201815,35.3647192 34.0668695,33.3167724 36.1072755,31.4769996 C36.5563793,34.1616349 36.5992788,36.9611715 33.796737,38.212244 Z M35.8438459,38.1487103 C37.7046104,35.4762411 40.3757725,36.2001193 42.9470594,37.1875947 C40.7283525,38.7874264 38.2247664,40.0777005 35.8438459,38.1487103 Z M38.4721086,35.765522 C36.064376,33.564824 37.1576421,31.0396988 38.5009317,28.6504274 C39.7879158,31.0532166 40.7276822,33.6925672 38.4721086,35.765522 Z M39.7523896,35.4958419 C41.0661858,32.5205739 43.8278391,32.7267203 46.5412304,33.2113335 C44.6697411,35.2004779 42.4590779,36.939543 39.7517193,35.4958419 L39.7523896,35.4958419 Z M41.9456249,32.6199297 C39.1678844,30.9004654 39.7704878,28.2178578 40.6438942,25.6231159 C42.357862,27.7467624 43.7742147,30.1684765 41.9456249,32.6199297 Z M42.9148848,32.2177751 C43.6394836,29.0492026 46.390412,28.7335619 49.1467028,28.6997674 C47.6881209,31.0045525 45.8488062,33.1268472 42.9148848,32.2177751 Z M43.7400292,27.5608927 C40.7826472,26.169235 41.0715483,23.4359357 41.6392959,20.7587352 C43.5878702,22.6742076 45.2743555,24.9181626 43.7400292,27.5615686 L43.7400292,27.5608927 Z M44.2327028,28.4672612 C44.5732173,25.2365068 47.2664995,24.5984666 50,24.2402448 C48.8269677,26.7004846 47.2544341,29.0248705 44.2327028,28.4672612 Z M44.9834435,22.2646182 C41.7867628,21.5637202 41.4536217,18.8351521 41.4040191,16.0998251 C43.7346668,17.5347396 45.883662,19.3481526 44.9834435,22.2646182 Z M45.6088373,24.6478065 C44.6838175,21.5319534 46.9293365,19.924011 49.3196413,18.5607407 C49.1788774,21.2778187 48.6171625,24.0219324 45.6088373,24.6478065 Z M43.7259528,16.1437579 C40.4568793,16.3059715 39.4078533,13.7625972 38.631641,11.1367644 C41.2612444,11.9093067 43.8171142,13.0948179 43.7259528,16.1437579 Z M45.830708,19.640813 C43.8667167,17.0420158 45.4037242,14.7568315 47.1626024,12.6494063 C47.9884171,15.2448241 48.4281367,18.0098903 45.830708,19.640813 Z M42.296194,11.5206699 C39.0277908,11.3334484 38.2609628,8.69274597 37.7736517,6 C40.30405,7.04762958 42.7164747,8.49944141 42.2955237,11.5206699 L42.296194,11.5206699 Z M44.3828509,14.3242619 C41.9268564,12.1762833 42.9651576,9.6281778 44.2554931,7.21051908 C45.5961015,9.58492084 46.5921735,12.2046707 44.3828509,14.3242619 Z M23.3567493,41.2618599 C20.6607859,39.4187077 18.4226402,41.0367885 16.3721797,42.8664229 C19.0185406,43.5801628 21.8210824,43.9039141 23.3567493,41.2618599 Z M22.7085651,39.675546 C22.589251,36.429246 19.9455713,35.612095 17.2429048,35.0727347 C18.2450096,37.6052947 19.6559999,40.0297124 22.7085651,39.675546 Z M18.5493277,39.798558 C16.0195997,37.7364174 13.651415,39.1605177 11.4534876,40.812393 C14.0294666,41.7451213 16.793801,42.3020547 18.5493277,39.798558 Z M16.203263,38.2588804 C17.7791482,35.4113556 15.9324602,33.3640847 13.8927245,31.523636 C13.4436207,34.2082713 13.4000509,37.0078079 16.203263,38.2588804 Z M14.1561541,38.1960226 C12.2947193,35.5235534 9.62355717,36.2467557 7.05294062,37.234907 C9.27164747,38.8340628 11.7752336,40.124337 14.1561541,38.1960226 Z M11.5272211,35.8121584 C13.935624,33.6114604 12.8423579,31.0863352 11.4990683,28.6970638 C10.2114139,31.099853 9.27231778,33.7398795 11.5272211,35.8121584 Z M10.2476104,35.5431542 C8.93314386,32.5678862 6.17216093,32.7740326 3.45809929,33.2586458 C5.32958857,35.2471143 7.54025177,36.9868553 10.2482807,35.5431542 L10.2476104,35.5431542 Z M8.05437508,32.6665661 C10.8321156,30.9471018 10.2295122,28.2651701 9.3561058,25.6697523 C7.6414677,27.7940747 6.22578526,30.2151129 8.05437508,32.6665661 Z M7.08444492,32.2644115 C6.3605164,29.095839 3.60958803,28.7801983 0.852626922,28.7470797 C2.31120883,31.0518648 4.15052351,33.1741596 7.08444492,32.2644115 Z M6.26064108,27.608205 C9.21802314,26.2158715 8.92845173,23.483248 8.36070409,20.8060475 C6.41212982,22.720844 4.7256445,24.9654749 6.25930047,27.608205 L6.26064108,27.608205 Z M5.7672972,28.5138976 C5.42678267,25.2831432 2.73350046,24.6457789 0,24.2875571 C1.17303232,26.7477969 2.74489563,29.0728587 5.7666269,28.5152494 L5.7672972,28.5138976 Z M5.01655651,22.3119305 C8.21390747,21.6103566 8.54704865,18.8824644 8.59598086,16.1464615 C6.26600351,17.581376 4.1170083,19.3954649 5.01655651,22.3119305 Z M4.39049241,24.6951188 C5.31551218,21.5785898 3.06999316,19.9706474 0.679688443,18.6073771 C0.820452321,21.325131 1.38283753,24.0685688 4.39049241,24.6951188 Z M6.27404716,16.1903943 C9.54312067,16.3526079 10.5914764,13.8092337 11.3676887,11.1840767 C8.73808534,11.9559431 6.18221549,13.1414543 6.27337686,16.1903943 L6.27404716,16.1903943 Z M4.16929202,19.6874494 C6.13328328,17.0886522 4.59560549,14.8034679 2.83739761,12.6960427 C2.01091255,15.2914605 1.57119301,18.0578785 4.16862172,19.6874494 L4.16929202,19.6874494 Z M7.70380599,11.5679823 C10.9722092,11.3807607 11.7390372,8.74005827 12.2263483,6.04663641 C9.69595002,7.09494188 7.28285496,8.54607783 7.70380599,11.5679823 Z M5.61781937,14.3715742 C8.07314359,12.2229197 7.03551272,9.6754901 5.74450686,7.25783139 C4.40456879,9.63223314 3.40849678,12.2513071 5.61781937,14.3715742 Z M25.9380907,40.6082742 C25.9380907,41.1287096 25.5137882,41.5497891 24.9902806,41.5497891 C24.7406812,41.5517686 24.5005257,41.4536839 24.3226494,41.277114 C24.1447731,41.100544 24.0437481,40.8599538 24.0418002,40.6082742 C24.0418002,40.0885148 24.4661027,39.6674353 24.9902806,39.6674353 C25.5137882,39.6674353 25.9380907,40.0885148 25.9380907,40.6082742 Z M18.4733333,18.25 L18.4733333,14.26 C20.2533422,13.7399974 21.8433263,13.1050038 23.2433333,12.355 C24.6433403,11.6049963 26.2333244,10.4800075 28.0133333,8.98 L28.0133333,27.1 L31.5833333,27.1 L31.5833333,31 L18.4733333,31 L18.4733333,27.1 L23.3333333,27.1 L23.3333333,16.96 L18.4733333,18.25 Z" id="№1"></path>
            </g>
        </g>
    </g>
</svg>